HIERARCHY
ROOT Pelvis
{
	OFFSET 0.000000 0.000000 0.000000
	CHANNELS 6 Xposition Yposition Zposition Zrotation Yrotation Xrotation 
	JOINT Left_hip
	{
		OFFSET 0.070241 -0.085575 -0.010474
		CHANNELS 3 Zrotation Yrotation Xrotation
		JOINT Left_knee
		{
			OFFSET 0.032125 -0.356873 -0.000555
			CHANNELS 3 Zrotation Yrotation Xrotation
			JOINT Left_ankle
			{
				OFFSET -0.010961 -0.370212 -0.042278
				CHANNELS 3 Zrotation Yrotation Xrotation
				JOINT Left_foot
				{
					OFFSET 0.023322 -0.052281 0.110104
					CHANNELS 3 Zrotation Yrotation Xrotation
					End Site
					{
						OFFSET 0.000000 0.000000 0.000000
					}
				}
			}
		}
	}
	JOINT Right_hip
	{
		OFFSET -0.068518 -0.084320 -0.007402
		CHANNELS 3 Zrotation Yrotation Xrotation
		JOINT Right_knee
		{
			OFFSET -0.037345 -0.364815 -0.003619
			CHANNELS 3 Zrotation Yrotation Xrotation
			JOINT Right_ankle
			{
				OFFSET 0.013394 -0.370006 -0.039954
				CHANNELS 3 Zrotation Yrotation Xrotation
				JOINT Right_foot
				{
					OFFSET -0.019600 -0.045455 0.113223
					CHANNELS 3 Zrotation Yrotation Xrotation
					End Site
					{
						OFFSET 0.000000 0.000000 0.000000
					}
				}
			}
		}
	}
	JOINT Spine1
	{
		OFFSET -0.002404 0.098129 -0.018169
		CHANNELS 3 Zrotation Yrotation Xrotation
		JOINT Spine2
		{
			OFFSET 0.003989 0.127209 -0.001742
			CHANNELS 3 Zrotation Yrotation Xrotation
			JOINT Spine3
			{
				OFFSET 0.001758 0.046641 0.023475
				CHANNELS 3 Zrotation Yrotation Xrotation
				JOINT Neck
				{
					OFFSET -0.003759 0.194901 -0.039982
					CHANNELS 3 Zrotation Yrotation Xrotation
					JOINT Head
					{
						OFFSET 0.003999 0.063756 0.047665
						CHANNELS 3 Zrotation Yrotation Xrotation
						End Site
						{
							OFFSET 0.000000 0.000000 0.000000
						}
					}
				}
				JOINT Left_collar
				{
					OFFSET 0.071816 0.109048 -0.028973
					CHANNELS 3 Zrotation Yrotation Xrotation
					JOINT Left_shoulder
					{
						OFFSET 0.084027 0.032269 -0.006525
						CHANNELS 3 Zrotation Yrotation Xrotation
						JOINT Left_elbow
						{
							OFFSET 0.243854 -0.013992 -0.025905
							CHANNELS 3 Zrotation Yrotation Xrotation
							JOINT Left_wrist
							{
								OFFSET 0.232156 0.008196 -0.000339
								CHANNELS 3 Zrotation Yrotation Xrotation
								JOINT Left_palm
								{
									OFFSET 0.075377 -0.009461 -0.012494
									CHANNELS 3 Zrotation Yrotation Xrotation
									End Site
									{
										OFFSET 0.000000 0.000000 0.000000
									}
								}
							}
						}
					}
				}
				JOINT Right_collar
				{
					OFFSET -0.073768 0.107001 -0.033755
					CHANNELS 3 Zrotation Yrotation Xrotation
					JOINT Right_shoulder
					{
						OFFSET -0.086837 0.032868 -0.009431
						CHANNELS 3 Zrotation Yrotation Xrotation
						JOINT Right_elbow
						{
							OFFSET -0.236446 -0.012544 -0.018747
							CHANNELS 3 Zrotation Yrotation Xrotation
							JOINT Right_wrist
							{
								OFFSET -0.236110 0.006124 -0.004327
								CHANNELS 3 Zrotation Yrotation Xrotation
								JOINT Right_palm
								{
									OFFSET -0.074800 -0.006875 -0.009610
									CHANNELS 3 Zrotation Yrotation Xrotation
									End Site
									{
										OFFSET 0.000000 0.000000 0.000000
									}
								}
							}
						}
					}
				}
			}
		}
	}
}
MOTION
Frames: 13
Frame Time: 0.100000
0.000000 0.000000 0.000000 175.586610 22.596378 -8.988396 4.451701 7.283050 0.543364 1.837011 -11.633337 -4.917230 -5.391964 21.584290 0.797503 5.110532 -4.006853 -5.455479 0.669932 -6.329115 0.561629 -1.099348 11.448525 -2.519592 5.381992 -21.655847 -4.230100 -0.442204 9.001285 7.420080 0.556537 2.040153 -0.973085 1.247576 -3.067878 -5.430470 0.357891 2.493229 0.522061 -4.835791 -3.706801 11.083023 4.209300 0.602171 12.805856 -0.285895 6.496817 -11.559124 8.060328 -9.744864 -17.495045 0.228661 11.089853 -0.832949 3.846775 -5.307966 32.465774 -3.933988 -9.960851 -5.371780 3.793845 -3.612830 -6.739856 -11.541481 4.431191 -27.604766 -9.013967 -13.049395 -9.012687 -7.972851 3.258198 35.354289 9.783001 9.878997 -8.009947 
-0.000591 0.000258 -0.001147 175.600983 22.490207 -8.965827 4.396180 7.272052 0.485748 1.830318 -11.564767 -4.912503 -5.349474 21.503910 0.795862 5.022909 -3.903789 -5.493409 0.628134 -6.349606 0.448278 -1.118745 11.458601 -2.477720 5.585268 -21.566291 -4.287638 -0.671372 9.064498 7.416761 0.600811 2.098278 -0.958219 1.228964 -2.984490 -5.390600 0.326680 2.550511 0.358021 -4.732688 -3.850767 10.871685 4.182382 0.507955 13.233538 -0.654778 6.846185 -11.786924 7.707436 -9.496814 -17.320789 0.299777 11.256990 -1.338773 3.328672 -5.006583 32.277263 -4.118583 -10.148916 -5.615775 4.239071 -3.645949 -6.752462 -11.405947 4.619102 -27.518745 -8.833337 -12.994774 -9.119369 -7.327587 2.930762 35.206530 9.775789 10.035692 -8.224085 
-0.001378 0.000477 -0.001635 175.619486 22.455303 -8.940362 4.344199 7.245388 0.522131 1.816107 -11.484563 -5.024071 -5.332196 21.460788 0.750273 5.091669 -3.911560 -5.347790 0.565020 -6.351685 0.458094 -1.139148 11.383010 -2.581736 5.486045 -21.472785 -4.223167 -0.506382 9.061315 7.509348 0.561201 2.169544 -1.155037 1.214732 -2.892077 -5.271687 0.234812 2.600704 0.104570 -4.594007 -4.090845 10.822819 4.057868 0.159567 13.634280 -1.180259 7.152492 -11.932163 7.602591 -9.573262 -17.207014 0.339846 11.497865 -1.855881 3.028010 -4.989543 32.468236 -4.024664 -10.146087 -5.563393 4.859683 -3.676613 -6.811741 -11.374358 4.843750 -27.408533 -8.774469 -13.513410 -9.542153 -7.123003 2.863211 35.475165 9.619995 10.063157 -8.183190 
-0.002153 0.000620 -0.002333 175.603076 22.627656 -9.158100 4.296196 7.193665 0.575475 1.741596 -11.578942 -4.790139 -5.345588 21.416276 0.616825 5.160973 -3.915929 -5.267412 0.469219 -6.387620 0.611972 -1.124212 11.280452 -2.435460 5.410798 -21.471953 -4.245783 -0.412493 9.022787 7.524248 0.505042 2.209029 -1.265676 1.195249 -2.882564 -5.012057 0.178921 2.595723 -0.025693 -4.629472 -4.258543 10.905041 3.998267 0.017194 13.621509 -1.508980 7.182401 -11.866832 7.484941 -9.669498 -17.155545 0.453460 11.522268 -2.022590 3.019109 -4.953478 32.594369 -4.096060 -10.198663 -5.666051 5.153616 -3.695743 -6.769688 -11.273521 4.752243 -27.367560 -8.807280 -13.591349 -9.900626 -6.996079 2.786010 35.306771 9.690593 10.125131 -8.166015 
-0.002012 0.001061 -0.004451 175.579980 22.819976 -9.622324 4.289767 7.134071 0.775606 1.660160 -11.734689 -4.533515 -5.309835 21.328137 0.532296 5.164806 -3.834149 -5.294363 0.396943 -6.394657 0.795290 -1.094698 11.159941 -2.043253 5.327367 -21.466455 -4.319871 -0.339112 8.975481 7.559104 0.433682 2.226736 -1.193752 1.176503 -2.903527 -4.557552 0.138328 2.575457 0.072507 -4.698110 -4.246657 11.406091 3.945486 0.034726 13.778545 -1.684640 7.071228 -11.721178 7.160269 -9.922088 -17.122259 0.492700 11.139886 -2.405732 3.105030 -4.994892 32.181762 -4.320373 -10.188712 -5.718738 5.269344 -3.661707 -6.637635 -10.822923 4.746049 -27.167410 -8.868327 -13.258117 -10.186429 -7.005575 2.793900 34.848403 9.856622 10.119033 -8.065103 
-0.000262 0.002186 -0.010152 175.584869 22.868038 -9.828955 4.214587 6.950267 0.371456 1.548050 -11.333875 -4.157938 -4.848218 20.806310 0.752255 4.608204 -3.273541 -5.355518 0.374910 -6.167522 0.306849 -1.022772 10.662768 -1.472476 5.125545 -21.115336 -4.293443 -0.028295 8.880961 7.996304 0.233379 2.230500 -0.786099 1.226066 -2.835180 -3.861946 0.013377 2.462277 0.291423 -4.520774 -4.292180 12.051072 3.910322 -0.270426 13.860493 -2.401426 7.798051 -11.222083 4.556237 -10.284422 -15.879009 1.969830 7.816289 -5.180337 7.053404 -5.389282 28.202295 -5.547318 -10.271031 -6.026345 6.160874 -4.393117 -6.203679 -7.333445 5.186525 -25.361929 -10.041903 -9.827783 -12.186627 -10.832935 3.732660 30.511327 10.965458 10.129958 -7.677735 
0.004991 0.005693 -0.023035 175.582340 22.903275 -9.741621 4.122707 6.545200 -1.008148 1.352765 -10.042257 -3.522197 -3.994923 19.318853 1.194967 3.572139 -1.890205 -5.304103 0.395777 -5.521662 -1.266831 -0.787927 9.086495 -0.436613 4.215548 -19.960788 -4.131325 1.161478 8.612551 9.242517 0.072875 2.246640 0.886872 1.232193 -2.563966 -1.791862 -0.240179 2.204311 0.056499 -3.888260 -4.389483 12.249745 3.583105 -1.286228 13.048191 -5.785380 8.779159 -9.683309 -2.981498 -10.213854 -11.328246 5.081990 0.754071 -12.139122 13.556902 -5.600868 18.388777 -8.384778 -10.444252 -6.491428 9.429279 -5.148758 -4.356003 1.904749 4.499719 -19.021349 -11.845601 -2.501599 -15.431360 -15.811109 4.615321 19.830710 13.063321 10.153713 -6.666443 
0.013911 0.012164 -0.043839 175.747183 23.148319 -9.551816 3.926016 6.027004 -3.650954 0.801176 -8.002898 -1.567341 -3.103745 16.827631 1.813756 3.044183 0.446000 -5.661556 0.150234 -4.890544 -3.874403 -0.435505 6.490419 1.618478 3.070559 -17.549236 -3.804777 1.898945 7.334104 10.116801 0.008864 2.441215 3.634084 1.240284 -2.236169 2.805226 -0.802730 1.980955 -1.232357 -2.819631 -4.511474 12.454677 2.562738 -2.345537 12.938818 -12.457890 8.752573 -7.613549 -16.353413 -11.459968 -3.365433 8.664722 -7.680978 -14.037649 16.515294 -4.821518 13.453028 -11.483042 -11.145322 -8.140357 15.726302 -4.955603 -1.626808 15.435755 5.067339 -10.092664 -13.514693 4.722836 -14.849276 -18.156270 4.478583 14.234920 15.250203 11.067861 -6.354846 
0.025258 0.019075 -0.069141 175.837610 23.850938 -9.934451 4.046337 5.416796 -6.390340 0.007005 -6.162526 1.127315 -2.784525 14.279640 2.441875 3.792734 2.875872 -7.040625 -0.007539 -4.222145 -7.123176 -0.439003 3.598208 5.620526 3.983219 -14.930081 -3.815751 -2.102717 6.183910 8.713120 -0.181162 2.847173 8.130615 1.182537 -2.381971 9.447876 -0.958545 1.944357 -2.438644 -2.572912 -4.713697 12.607804 2.966845 -3.535090 12.402869 -19.168412 4.045057 -3.574370 -30.862774 -11.760068 5.668086 8.340300 -18.078729 1.695310 6.011603 -6.514047 22.219341 -12.589679 -11.825811 -10.580015 22.275717 -0.400261 2.200004 30.101834 5.572496 -2.094305 -14.267438 11.634292 -5.752013 -8.121821 5.012941 20.009034 15.494660 11.724633 -6.692700 
0.033874 0.025280 -0.094628 175.912862 24.794223 -9.656144 3.764045 4.803505 -10.357101 -0.501443 -4.355769 4.529237 -2.752405 11.630799 2.682931 4.658502 5.829938 -7.123976 -0.541760 -3.576910 -11.160564 -0.631085 0.538254 9.802207 3.909151 -12.089083 -3.820069 -4.107247 3.723793 7.576966 -0.086494 2.956849 12.980236 1.292033 -2.875224 16.653574 -0.724921 1.856204 -4.298813 -3.652181 -5.088530 15.829736 3.304300 -5.023755 8.859435 -24.015905 -2.595434 0.609315 -43.362475 -14.125065 13.107594 9.486582 -25.386551 10.788966 3.148884 -6.606957 27.702195 -14.264582 -12.770719 -13.746722 26.248587 5.612944 6.285394 40.745073 7.608598 3.974629 -15.916613 18.873132 -0.642256 -4.229978 5.876712 20.780087 16.578637 12.293133 -7.357818 
0.040445 0.033419 -0.120581 175.812819 25.390657 -9.534552 3.462501 4.176119 -14.695303 -0.955818 -3.447397 8.988699 -3.048208 10.679709 2.612379 5.979749 7.247111 -7.051832 -1.042244 -2.909402 -14.349250 -0.870790 -0.889619 12.670984 3.822180 -10.832676 -3.507688 -5.866560 2.836907 6.441333 0.836502 2.969930 18.737214 1.269376 -3.472378 21.679766 -0.109885 2.005911 -4.680534 -5.555364 -6.874167 19.015986 4.767971 -5.959209 5.485006 -26.849905 -8.741391 4.431899 -49.545295 -16.530093 15.791125 11.685721 -31.145266 9.385824 4.849173 -5.850223 25.109856 -16.584415 -13.695970 -15.063482 27.197100 11.723172 9.740869 44.990854 9.089168 6.394263 -14.991871 25.537113 0.753282 -2.652357 6.124584 16.752063 17.560397 12.599624 -7.531517 
0.045563 0.044389 -0.142942 175.760372 24.271552 -9.410814 3.474826 4.028306 -19.393228 -1.384079 -2.950235 14.944414 -2.815843 11.306349 1.682955 6.410432 7.594370 -7.068487 -1.206389 -2.291496 -18.370103 -0.534062 -0.720017 17.009084 3.111202 -10.309113 -3.715647 -5.560694 3.069059 5.774346 1.927182 3.061765 24.690972 1.600842 -3.354934 25.212719 0.995123 2.737332 -4.730696 -7.028814 -8.403863 21.082852 6.357927 -5.833995 1.514713 -28.587399 -13.756267 7.701026 -49.746303 -16.220001 15.359003 13.089423 -35.053125 3.830621 12.107283 -4.668863 18.960069 -19.023860 -14.988682 -15.967939 27.506712 17.944791 13.695422 42.249985 10.251958 6.289311 -10.427305 28.853146 4.202562 -6.143843 6.672194 13.657912 18.716771 12.796090 -8.264768 
0.048007 0.056211 -0.163492 176.980482 20.184455 -8.619885 3.227814 3.903871 -22.544315 -1.582713 -1.975772 19.082838 -1.520890 13.464506 0.397757 6.133468 7.345591 -6.032831 -1.476009 -1.100559 -23.088598 0.023877 1.212493 21.565579 2.312391 -9.739971 -3.346920 -4.971881 3.801126 4.518392 1.761048 3.620264 30.386863 0.629946 -2.630748 28.940088 0.959829 3.547829 -5.216377 -8.755632 -8.969247 21.512018 8.169249 -4.727397 -1.599887 -31.623134 -18.410854 10.310914 -44.844245 -15.897998 12.389674 14.964685 -33.351567 -7.858123 19.074890 -1.304297 12.086919 -20.418591 -15.849439 -16.346983 29.729877 23.376537 17.568900 37.739179 12.994978 3.714427 -8.380656 27.227468 1.359175 -12.119629 5.589418 12.517569 19.675952 12.615826 -8.846822 
